# xmcd
#
# Track frame offsets:
#	150
#	11109
#	21046
#	36041
#	48831
#	59598
#	69150
#	79411
#	91430
#	106012
#	118221
#	131272
#	144275
#	158603
#	173362
#	184236
#	194531
#	209441
#	218623
#	229779
#	239775
#	249475
#	260490
#	271155
#	281393
#	292864
#	303325
#	313340
#	327631
#	341017
#
# Disc length: 4700 seconds
#
# Revision: 4277599988
# Processed by: cddbd v1.5.2PL0 Copyright (c) Steve Scherf et al.
# Submitted via: EZCDAudioConverter 8.5.0.1
#
DISCID=b2125a1e
DTITLE=V/A - The Beginning Of The End
DYEAR=2018
DGENRE=Country
TTITLE0=Whitey Gallagher - Searching (I'm Always Looking)
TTITLE1=Bobby Grove - Whistle Of The Gravy Train
TTITLE2=Jimmy Griggs - The Beginning Of The End
TTITLE3=Jim Ed Brown - The Enemy
TTITLE4=Ed Bruce - Puzzles
TTITLE5=Ray Sanders - My World Is Upside Down
TTITLE6=Johnny Darrell - Jimmy Jacob
TTITLE7=Billy Rufus - Low Down Blues
TTITLE8=Sammi Smith - Saunders Ferry Lane
TTITLE9=George Kent - Hello, I'm A Jukebox
TTITLE10=Johnny Dollar - Meeting Of The Bored
TTITLE11=Curly Putman - Talking To The Grass
TTITLE12=Lonnie Holt - Water Under The Bridge
TTITLE13=Johnny Collier - Nobody Touches Me
TTITLE14=Bob Fry - I'm Gonna Be Gone
TTITLE15=David Price - National Everybody Hate Me Week
TTITLE16=Clay Hart - Free
TTITLE17=Gene Savage - I Started At The Bottom And Worked On Down
TTITLE18=Diane McCall - You'll Not Take Nothin' Out
TTITLE19=Jimmy Griggs - Footprints In The Sands Of Time
TTITLE20=George Kent - Running With The Wind
TTITLE21=Johnny Darrell - It's A Rough Old Road To Travel
TTITLE22=Mel Tillis - Survival Of The Fittest
TTITLE23=Clay Hart - Wine, The River And You
TTITLE24=Jerry Irby and The Texas Ranchers - A Man Is A Slave
TTITLE25=Johnny Skiles with The Harmony Ranch Hands - Ghosts Of My Lonely Past
TTITLE26=Buddy Starcher - I'll Still Write Your Name In The Sand
TTITLE27=Dave Dudley - The Farmer's Prayer
TTITLE28=Tony Gavin - The Oldtimer
TTITLE29=Rube Gallagher - Searching
EXTD=
EXTT0=
EXTT1=
EXTT2=
EXTT3=
EXTT4=
EXTT5=
EXTT6=
EXTT7=
EXTT8=
EXTT9=
EXTT10=
EXTT11=
EXTT12=
EXTT13=
EXTT14=
EXTT15=
EXTT16=
EXTT17=
EXTT18=
EXTT19=
EXTT20=
EXTT21=
EXTT22=
EXTT23=
EXTT24=
EXTT25=
EXTT26=
EXTT27=
EXTT28=
EXTT29=
PLAYORDER=
